<svg width="24" height="24" viewBox="0 0 24 24" fill="none" xmlns="http://www.w3.org/2000/svg">
<rect width="24" height="24" rx="4.8" fill="#6366F1"/>
<path d="M11.419 6.32413C11.5972 6.22516 11.7977 6.17322 12.0016 6.17322C12.2054 6.17322 12.4059 6.22516 12.5842 6.32413L17.0932 8.82853C17.1866 8.88052 17.2645 8.95655 17.3188 9.04875C17.373 9.14095 17.4016 9.24597 17.4016 9.35293V14.2939C17.4015 14.5079 17.3442 14.718 17.2357 14.9024C17.1271 15.0868 16.9712 15.2388 16.7842 15.3427L12.5842 17.6767C12.4059 17.7757 12.2054 17.8277 12.0016 17.8277C11.7977 17.8277 11.5972 17.7757 11.419 17.6767L7.21896 15.3427C7.03198 15.2389 6.87614 15.087 6.76759 14.9027C6.65904 14.7184 6.60172 14.5084 6.60156 14.2945V9.35293C6.60156 9.24597 6.63015 9.14095 6.68437 9.04875C6.7386 8.95655 6.81648 8.88052 6.90996 8.82853L11.4196 6.32413H11.419Z" stroke="white" stroke-width="1.2" stroke-linecap="round" stroke-linejoin="round"/>
<path d="M6.60156 9.00024L12.0016 12.0002M12.0016 12.0002L17.4016 9.00024M12.0016 12.0002V17.7002" stroke="white" stroke-width="1.2" stroke-linejoin="round"/>
<path d="M9.30137 10.5004L14.7014 7.50037M8.40137 12.1972L10.2014 13.2004" stroke="white" stroke-width="1.2" stroke-linecap="round" stroke-linejoin="round"/>
</svg>
