<svg width="24" height="24" viewBox="0 0 24 24" fill="none" xmlns="http://www.w3.org/2000/svg">
<rect width="24" height="24" rx="4.8" fill="#84CC16"/>
<g clip-path="url(#clip0_1278_10384)">
<path d="M16.6666 14.3333V10.5416C16.6666 10.0586 16.2927 9.66664 15.8032 9.66664C15.4999 9.66664 14.9166 9.84164 14.9166 10.5416M9.66658 13.1666V8.21997M16.6666 14.3333C16.6666 16.6666 14.8384 17.8333 12.5832 17.8333C10.3281 17.8333 9.55225 17.25 7.80225 14.3333L6.88583 12.8137C6.57316 12.3074 6.82341 11.6506 7.39975 11.4639C7.5882 11.4023 7.79103 11.4002 7.98073 11.4578C8.17043 11.5154 8.33784 11.6299 8.46025 11.7859L9.66658 13.1859" stroke="white" stroke-width="1.18327" stroke-linecap="round" stroke-linejoin="round"/>
<path d="M13.168 11.4166V9.37492C13.168 9.14285 13.2602 8.92029 13.4243 8.7562C13.5883 8.59211 13.8109 8.49992 14.043 8.49992V8.49992C14.275 8.49992 14.4976 8.59211 14.6617 8.7562C14.8258 8.92029 14.918 9.14285 14.918 9.37492V11.4166M11.418 11.4166V8.79159C11.418 8.55952 11.5102 8.33696 11.6743 8.17287C11.8383 8.00877 12.0609 7.91659 12.293 7.91659V7.91659C12.525 7.91659 12.7476 8.00877 12.9117 8.17287C13.0758 8.33696 13.168 8.55952 13.168 8.79159V11.4166M9.66797 11.4166V6.45825C9.66797 6.22619 9.76016 6.00363 9.92425 5.83953C10.0883 5.67544 10.3109 5.58325 10.543 5.58325C10.775 5.58325 10.9976 5.67544 11.1617 5.83953C11.3258 6.00363 11.418 6.22619 11.418 6.45825V11.4166" stroke="white" stroke-width="1.18327" stroke-linecap="round" stroke-linejoin="round"/>
</g>
<defs>
<clipPath id="clip0_1278_10384">
<rect width="14" height="14" fill="white" transform="translate(5 5)"/>
</clipPath>
</defs>
</svg>
