<svg width="24" height="24" viewBox="0 0 24 24" fill="none" xmlns="http://www.w3.org/2000/svg">
<rect width="24" height="24" rx="4.8" fill="#14B8A6"/>
<path d="M6.16797 9.08341C6.16797 8.774 6.29089 8.47725 6.50968 8.25846C6.72847 8.03966 7.02522 7.91675 7.33464 7.91675H16.668C16.9774 7.91675 17.2741 8.03966 17.4929 8.25846C17.7117 8.47725 17.8346 8.774 17.8346 9.08341V14.9167C17.8346 15.2262 17.7117 15.5229 17.4929 15.7417C17.2741 15.9605 16.9774 16.0834 16.668 16.0834H7.33464C7.02522 16.0834 6.72847 15.9605 6.50968 15.7417C6.29089 15.5229 6.16797 15.2262 6.16797 14.9167V9.08341Z" stroke="white" stroke-width="1.18327" stroke-linecap="round" stroke-linejoin="round"/>
<path d="M12 13.7501C12.9665 13.7501 13.75 12.9666 13.75 12.0001C13.75 11.0336 12.9665 10.2501 12 10.2501C11.0335 10.2501 10.25 11.0336 10.25 12.0001C10.25 12.9666 11.0335 13.7501 12 13.7501Z" stroke="white" stroke-width="1.18327" stroke-linecap="round" stroke-linejoin="round"/>
<path d="M6.16797 10.2501C6.78681 10.2501 7.3803 10.0042 7.81788 9.56666C8.25547 9.12908 8.5013 8.53559 8.5013 7.91675M15.5013 16.0834C15.5013 15.4646 15.7471 14.8711 16.1847 14.4335C16.6223 13.9959 17.2158 13.7501 17.8346 13.7501" stroke="white" stroke-width="1.18327" stroke-linecap="round" stroke-linejoin="round"/>
</svg>
