<svg width="13" height="14" viewBox="0 0 13 14" fill="none" xmlns="http://www.w3.org/2000/svg">
<path d="M5.41878 1.32411C5.59701 1.22513 5.79751 1.17319 6.00138 1.17319C6.20525 1.17319 6.40575 1.22513 6.58398 1.32411L11.093 3.82851C11.1865 3.8805 11.2643 3.95653 11.3186 4.04873C11.3728 4.14093 11.4014 4.24595 11.4014 4.35291V9.29391C11.4013 9.5079 11.3441 9.71798 11.2355 9.90239C11.1269 10.0868 10.9711 10.2388 10.784 10.3427L6.58398 12.6767C6.40575 12.7757 6.20525 12.8276 6.00138 12.8276C5.79751 12.8276 5.59701 12.7757 5.41878 12.6767L1.21878 10.3427C1.03179 10.2389 0.875958 10.0869 0.767408 9.90265C0.658858 9.71835 0.601537 9.5084 0.601379 9.29451V4.35291C0.601375 4.24595 0.629965 4.14093 0.684188 4.04873C0.738412 3.95653 0.816298 3.8805 0.909779 3.82851L5.41938 1.32411H5.41878Z" stroke="white" stroke-width="1.2" stroke-linecap="round" stroke-linejoin="round"/>
<path d="M0.601379 4.0002L6.00138 7.0002M6.00138 7.0002L11.4014 4.0002M6.00138 7.0002V12.7002" stroke="white" stroke-width="1.2" stroke-linejoin="round"/>
<path d="M3.30118 5.50034L8.70118 2.50034M2.40118 7.19714L4.20118 8.20034" stroke="white" stroke-width="1.2" stroke-linecap="round" stroke-linejoin="round"/>
</svg>
