<svg width="15" height="15" viewBox="0 0 15 15" fill="none" xmlns="http://www.w3.org/2000/svg">
<g clip-path="url(#clip0_1_841)">
<path d="M13.2027 7.19463C13.4792 7.5563 13.4792 8.04455 13.2027 8.40563C12.3318 9.54255 10.2423 11.8835 7.80278 11.8835C5.36328 11.8835 3.27378 9.54255 2.40286 8.40563C2.26834 8.23246 2.19531 8.01942 2.19531 7.80013C2.19531 7.58084 2.26834 7.3678 2.40286 7.19463C3.27378 6.05771 5.36328 3.7168 7.80278 3.7168C10.2423 3.7168 12.3318 6.05771 13.2027 7.19463V7.19463Z" stroke="white" stroke-width="1.18327" stroke-linecap="round" stroke-linejoin="round"/>
<path d="M7.80469 9.55017C8.77119 9.55017 9.55469 8.76667 9.55469 7.80017C9.55469 6.83367 8.77119 6.05017 7.80469 6.05017C6.83819 6.05017 6.05469 6.83367 6.05469 7.80017C6.05469 8.76667 6.83819 9.55017 7.80469 9.55017Z" stroke="white" stroke-width="1.18327" stroke-linecap="round" stroke-linejoin="round"/>
</g>
<defs>
<clipPath id="clip0_1_841">
<rect width="14" height="14" fill="white" transform="translate(0.800781 0.800049)"/>
</clipPath>
</defs>
</svg>
