<svg width="14" height="14" viewBox="0 0 14 14" fill="none" xmlns="http://www.w3.org/2000/svg">
<path d="M1.16797 4.08341C1.16797 3.774 1.29089 3.47725 1.50968 3.25846C1.72847 3.03966 2.02522 2.91675 2.33464 2.91675H11.668C11.9774 2.91675 12.2741 3.03966 12.4929 3.25846C12.7117 3.47725 12.8346 3.774 12.8346 4.08341V9.91675C12.8346 10.2262 12.7117 10.5229 12.4929 10.7417C12.2741 10.9605 11.9774 11.0834 11.668 11.0834H2.33464C2.02522 11.0834 1.72847 10.9605 1.50968 10.7417C1.29089 10.5229 1.16797 10.2262 1.16797 9.91675V4.08341Z" stroke="white" stroke-width="1.18327" stroke-linecap="round" stroke-linejoin="round"/>
<path d="M7 8.75012C7.9665 8.75012 8.75 7.96662 8.75 7.00012C8.75 6.03362 7.9665 5.25012 7 5.25012C6.0335 5.25012 5.25 6.03362 5.25 7.00012C5.25 7.96662 6.0335 8.75012 7 8.75012Z" stroke="white" stroke-width="1.18327" stroke-linecap="round" stroke-linejoin="round"/>
<path d="M1.16797 5.25008C1.78681 5.25008 2.3803 5.00425 2.81788 4.56666C3.25547 4.12908 3.5013 3.53559 3.5013 2.91675M10.5013 11.0834C10.5013 10.4646 10.7471 9.87108 11.1847 9.4335C11.6223 8.99591 12.2158 8.75008 12.8346 8.75008" stroke="white" stroke-width="1.18327" stroke-linecap="round" stroke-linejoin="round"/>
</svg>
