<svg width="14" height="14" viewBox="0 0 14 14" fill="none" xmlns="http://www.w3.org/2000/svg">
<g clip-path="url(#clip0_1_818)">
<path d="M11.6666 9.33326V5.54159C11.6666 5.05859 11.2927 4.66659 10.8032 4.66659C10.4999 4.66659 9.91658 4.84159 9.91658 5.54159M4.66658 8.16659V3.21992M11.6666 9.33326C11.6666 11.6666 9.83841 12.8333 7.58325 12.8333C5.32808 12.8333 4.55225 12.2499 2.80225 9.33326L1.88583 7.81368C1.57316 7.30734 1.82341 6.65051 2.39975 6.46384C2.5882 6.40228 2.79103 6.40015 2.98073 6.45775C3.17043 6.51535 3.33784 6.62989 3.46025 6.78584L4.66658 8.18584" stroke="white" stroke-width="1.18327" stroke-linecap="round" stroke-linejoin="round"/>
<path d="M8.16797 6.41659V4.37492C8.16797 4.14285 8.26016 3.92029 8.42425 3.7562C8.58834 3.59211 8.8109 3.49992 9.04297 3.49992V3.49992C9.27503 3.49992 9.49759 3.59211 9.66169 3.7562C9.82578 3.92029 9.91797 4.14285 9.91797 4.37492V6.41659M6.41797 6.41659V3.79159C6.41797 3.55952 6.51016 3.33696 6.67425 3.17287C6.83834 3.00877 7.0609 2.91659 7.29297 2.91659V2.91659C7.52503 2.91659 7.74759 3.00877 7.91169 3.17287C8.07578 3.33696 8.16797 3.55952 8.16797 3.79159V6.41659M4.66797 6.41659V1.45825C4.66797 1.22619 4.76016 1.00363 4.92425 0.839534C5.08834 0.675439 5.3109 0.583252 5.54297 0.583252C5.77503 0.583252 5.99759 0.675439 6.16169 0.839534C6.32578 1.00363 6.41797 1.22619 6.41797 1.45825V6.41659" stroke="white" stroke-width="1.18327" stroke-linecap="round" stroke-linejoin="round"/>
</g>
<defs>
<clipPath id="clip0_1_818">
<rect width="14" height="14" fill="white"/>
</clipPath>
</defs>
</svg>
