<svg width="13" height="12" viewBox="0 0 13 12" fill="none" xmlns="http://www.w3.org/2000/svg">
<path d="M2.91699 3.08301H10.9612C11.1242 3.08301 11.2853 3.11717 11.4343 3.18329C11.5833 3.2494 11.7168 3.34599 11.8262 3.46685C11.9355 3.5877 12.0184 3.73014 12.0693 3.88496C12.1203 4.03979 12.1382 4.20357 12.122 4.36576L11.772 7.86576C11.7432 8.15364 11.6085 8.42055 11.394 8.61469C11.1795 8.80882 10.9005 8.91633 10.6112 8.91634H5.04033C4.77052 8.91645 4.50901 8.82304 4.30033 8.65201C4.09166 8.48098 3.94871 8.24292 3.89583 7.97834L2.91699 3.08301Z" stroke="white" stroke-width="1.16667" stroke-linejoin="round"/>
<path d="M2.91699 3.08333L2.44449 1.19158C2.41289 1.06544 2.34005 0.953472 2.23753 0.873466C2.13501 0.79346 2.0087 0.750003 1.87866 0.75H1.16699M4.66699 11.25H5.83366M9.33366 11.25H10.5003" stroke="white" stroke-width="1.16667" stroke-linecap="round" stroke-linejoin="round"/>
</svg>
