<svg width="16" height="16" viewBox="0 0 16 16" fill="none" xmlns="http://www.w3.org/2000/svg">
<path d="M8 1C4.13359 1 1 4.13359 1 8C1 11.8664 4.13359 15 8 15C11.8664 15 15 11.8664 15 8C15 4.13359 11.8664 1 8 1ZM8 13.6875C4.86367 13.6875 2.3125 11.1361 2.3125 8C2.3125 4.86395 4.86367 2.3125 8 2.3125C11.1363 2.3125 13.6875 4.86395 13.6875 8C13.6875 11.1361 11.1363 13.6875 8 13.6875ZM8 9.3125C8.3623 9.3125 8.65625 9.01855 8.65625 8.65625V5.15625C8.65625 4.79531 8.36367 4.5 8 4.5C7.63633 4.5 7.34375 4.79531 7.34375 5.15625V8.65625C7.34375 9.01992 7.63906 9.3125 8 9.3125ZM8 10.2176C7.52531 10.2176 7.14031 10.6026 7.14031 11.0773C7.14141 11.552 7.52422 11.9375 8 11.9375C8.47578 11.9375 8.85969 11.5525 8.85969 11.0778C8.85859 10.6031 8.47578 10.2176 8 10.2176Z" fill="#EF4444"/>
</svg>
